{
  "accessors": [
    {
      "bufferView": 2,
      "componentType": 5126,
      "count": 10396,
      "max": [
        0.90420711040496826,
        0.34219101071357727,
        0.52830398082733154
      ],
      "min": [
        -0.96430486440658569,
        -0.34219101071357727,
        -0.51240712404251099
      ],
      "type": "VEC3"
    },
    {
      "bufferView": 2,
      "byteOffset": 124752,
      "componentType": 5126,
      "count": 10396,
      "max": [
        1,
        1,
        1
      ],
      "min": [
        -1,
        -1,
        -1
      ],
      "type": "VEC3"
    },
    {
      "bufferView": 3,
      "componentType": 5126,
      "count": 10396,
      "max": [
        1,
        1,
        0.99995249509811401,
        1
      ],
      "min": [
        -0.82870936393737793,
        -1,
        -0.99415856599807739,
        -1
      ],
      "type": "VEC4"
    },
    {
      "bufferView": 1,
      "componentType": 5126,
      "count": 10396,
      "max": [
        0.95210355520248413,
        0.7609562873840332
      ],
      "min": [
        0.0086545003578066826,
        0.24166649580001831
      ],
      "type": "VEC2"
    },
    {
      "bufferView": 0,
      "componentType": 5125,
      "count": 61644,
      "max": [
        10395
      ],
      "min": [
        0
      ],
      "type": "SCALAR"
    }
  ],
  "asset": {
    "extras": {
      "author": "Thomas Flynn (https://sketchfab.com/nebulousflynn)",
      "license": "CC-BY-4.0 (http://creativecommons.org/licenses/by/4.0/)",
      "source": "https://sketchfab.com/models/7e9695868ed64f419e09efdfe3120cb4",
      "title": "Indian Rhino (Smoothie 3D)"
    },
    "generator": "Sketchfab-3.29.3",
    "version": "2.0"
  },
  "bufferViews": [
    {
      "buffer": 0,
      "byteLength": 246576,
      "byteOffset": 0,
      "name": "floatBufferViews",
      "target": 34963
    },
    {
      "buffer": 0,
      "byteLength": 83168,
      "byteOffset": 246576,
      "byteStride": 8,
      "name": "floatBufferViews",
      "target": 34962
    },
    {
      "buffer": 0,
      "byteLength": 249504,
      "byteOffset": 329744,
      "byteStride": 12,
      "name": "floatBufferViews",
      "target": 34962
    },
    {
      "buffer": 0,
      "byteLength": 166336,
      "byteOffset": 579248,
      "byteStride": 16,
      "name": "floatBufferViews",
      "target": 34962
    }
  ],
  "buffers": [
    {
      "byteLength": 745584,
      "uri": "scene.bin"
    }
  ],
  "images": [
    {
      "uri": "textures/Textured_baseColor.jpg"
    },
    {
      "uri": "textures/Textured_metallicRoughness.png"
    },
    {
      "uri": "textures/Textured_emissive.jpg"
    }
  ],
  "materials": [
    {
      "doubleSided": true,
      "emissiveFactor": [
        0.65000000000000002,
        0.65000000000000002,
        0.65000000000000002
      ],
      "emissiveTexture": {
        "index": 2,
        "texCoord": 0
      },
      "name": "Textured",
      "occlusionTexture": {
        "index": 1,
        "strength": 0,
        "texCoord": 0
      },
      "pbrMetallicRoughness": {
        "baseColorFactor": [
          0.32000000000000001,
          0.32000000000000001,
          0.32000000000000001,
          1
        ],
        "baseColorTexture": {
          "index": 0,
          "texCoord": 0
        },
        "metallicFactor": 0.58999999999999997,
        "metallicRoughnessTexture": {
          "index": 1,
          "texCoord": 0
        },
        "roughnessFactor": 1
      }
    }
  ],
  "meshes": [
    {
      "primitives": [
        {
          "attributes": {
            "NORMAL": 1,
            "POSITION": 0,
            "TANGENT": 2,
            "TEXCOORD_0": 3
          },
          "indices": 4,
          "material": 0,
          "mode": 4
        }
      ]
    }
  ],
  "nodes": [
    {
      "children": [
        1
      ],
      "name": "RootNode (gltf orientation matrix)",
      "rotation": [
        -0.70710678118654746,
        -0,
        -0,
        0.70710678118654757
      ]
    },
    {
      "children": [
        2
      ],
      "name": "RootNode (model correction matrix)"
    },
    {
      "children": [
        3
      ],
      "name": "model.obj.cleaner"
    },
    {
      "mesh": 0,
      "name": ""
    }
  ],
  "samplers": [
    {
      "magFilter": 9729,
      "minFilter": 9987,
      "wrapS": 10497,
      "wrapT": 10497
    }
  ],
  "scene": 0,
  "scenes": [
    {
      "name": "OSG_Scene",
      "nodes": [
        0
      ]
    }
  ],
  "textures": [
    {
      "sampler": 0,
      "source": 0
    },
    {
      "sampler": 0,
      "source": 1
    },
    {
      "sampler": 0,
      "source": 2
    }
  ]
}

