{
  "accessors": [
    {
      "bufferView": 2,
      "componentType": 5126,
      "count": 65532,
      "max": [
        0.23394399881362915,
        -1.4085780382156372,
        67.551139831542969
      ],
      "min": [
        -0.89419800043106079,
        -1.8521120548248291,
        66.888038635253906
      ],
      "type": "VEC3"
    },
    {
      "bufferView": 2,
      "byteOffset": 786384,
      "componentType": 5126,
      "count": 65532,
      "max": [
        0.99998736381530762,
        0.99998217821121216,
        0.99950528144836426
      ],
      "min": [
        -0.99986022710800171,
        -0.99999171495437622,
        -0.99998325109481812
      ],
      "type": "VEC3"
    },
    {
      "bufferView": 1,
      "componentType": 5126,
      "count": 65532,
      "max": [
        0.99416297674179077,
        0.98797398805618286
      ],
      "min": [
        0.0055340002290904522,
        0.0035890000872313976
      ],
      "type": "VEC2"
    },
    {
      "bufferView": 0,
      "componentType": 5125,
      "count": 356448,
      "max": [
        65531
      ],
      "min": [
        0
      ],
      "type": "SCALAR"
    },
    {
      "bufferView": 2,
      "byteOffset": 1572768,
      "componentType": 5126,
      "count": 65532,
      "max": [
        0.2338930070400238,
        -1.3606109619140625,
        67.602279663085938
      ],
      "min": [
        -0.89500099420547485,
        -1.9018330574035645,
        67.052574157714844
      ],
      "type": "VEC3"
    },
    {
      "bufferView": 2,
      "byteOffset": 2359152,
      "componentType": 5126,
      "count": 65532,
      "max": [
        0.99993115663528442,
        0.99999934434890747,
        0.99998468160629272
      ],
      "min": [
        -0.99991685152053833,
        -0.99997079372406006,
        -0.99991142749786377
      ],
      "type": "VEC3"
    },
    {
      "bufferView": 1,
      "byteOffset": 524256,
      "componentType": 5126,
      "count": 65532,
      "max": [
        0.99227297306060791,
        0.99390298128128052
      ],
      "min": [
        0.0037700000684708357,
        0.0038499999791383743
      ],
      "type": "VEC2"
    },
    {
      "bufferView": 0,
      "byteOffset": 1425792,
      "componentType": 5125,
      "count": 330939,
      "max": [
        65531
      ],
      "min": [
        0
      ],
      "type": "SCALAR"
    },
    {
      "bufferView": 2,
      "byteOffset": 3145536,
      "componentType": 5126,
      "count": 53930,
      "max": [
        0.2335049957036972,
        -1.4114099740982056,
        67.623893737792969
      ],
      "min": [
        -0.88912302255630493,
        -1.9018290042877197,
        67.273490905761719
      ],
      "type": "VEC3"
    },
    {
      "bufferView": 2,
      "byteOffset": 3792696,
      "componentType": 5126,
      "count": 53930,
      "max": [
        0.99986881017684937,
        0.99995386600494385,
        0.99997109174728394
      ],
      "min": [
        -0.99998575448989868,
        -0.99999505281448364,
        -0.99794960021972656
      ],
      "type": "VEC3"
    },
    {
      "bufferView": 1,
      "byteOffset": 1048512,
      "componentType": 5126,
      "count": 53930,
      "max": [
        0.99405002593994141,
        0.99617302417755127
      ],
      "min": [
        0.0042340001091361046,
        0.0036539998836815357
      ],
      "type": "VEC2"
    },
    {
      "bufferView": 0,
      "byteOffset": 2749548,
      "componentType": 5125,
      "count": 266265,
      "max": [
        53929
      ],
      "min": [
        0
      ],
      "type": "SCALAR"
    }
  ],
  "asset": {
    "extras": {
      "author": "nash808 (https://sketchfab.com/nash808)",
      "license": "CC-BY-4.0 (http://creativecommons.org/licenses/by/4.0/)",
      "source": "https://sketchfab.com/3d-models/polar-bear-1-174fe0160fc2421c92323502adcb481f",
      "title": "Polar Bear_1"
    },
    "generator": "Sketchfab-8.77.2",
    "version": "2.0"
  },
  "bufferViews": [
    {
      "buffer": 0,
      "byteLength": 3814608,
      "byteOffset": 0,
      "name": "floatBufferViews",
      "target": 34963
    },
    {
      "buffer": 0,
      "byteLength": 1479952,
      "byteOffset": 3814608,
      "byteStride": 8,
      "name": "floatBufferViews",
      "target": 34962
    },
    {
      "buffer": 0,
      "byteLength": 4439856,
      "byteOffset": 5294560,
      "byteStride": 12,
      "name": "floatBufferViews",
      "target": 34962
    }
  ],
  "buffers": [
    {
      "byteLength": 9734416,
      "uri": "scene.bin"
    }
  ],
  "images": [
    {
      "uri": "textures/model_baseColor.jpeg"
    }
  ],
  "materials": [
    {
      "doubleSided": true,
      "emissiveFactor": [
        0,
        0,
        0
      ],
      "name": "model",
      "pbrMetallicRoughness": {
        "baseColorFactor": [
          1,
          1,
          1,
          1
        ],
        "baseColorTexture": {
          "index": 0,
          "texCoord": 0
        },
        "metallicFactor": 0,
        "roughnessFactor": 0.59999999999999998
      }
    }
  ],
  "meshes": [
    {
      "primitives": [
        {
          "attributes": {
            "NORMAL": 1,
            "POSITION": 0,
            "TEXCOORD_0": 2
          },
          "indices": 3,
          "material": 0,
          "mode": 4
        }
      ]
    },
    {
      "primitives": [
        {
          "attributes": {
            "NORMAL": 5,
            "POSITION": 4,
            "TEXCOORD_0": 6
          },
          "indices": 7,
          "material": 0,
          "mode": 4
        }
      ]
    },
    {
      "primitives": [
        {
          "attributes": {
            "NORMAL": 9,
            "POSITION": 8,
            "TEXCOORD_0": 10
          },
          "indices": 11,
          "material": 0,
          "mode": 4
        }
      ]
    }
  ],
  "nodes": [
    {
      "children": [
        1
      ],
      "name": "RootNode (gltf orientation matrix)",
      "rotation": [
        -0.70710678118654746,
        -0,
        -0,
        0.70710678118654757
      ]
    },
    {
      "children": [
        2
      ],
      "matrix": [
        -0.079398445785045624,
        0.94536495208740234,
        -0.31619778275489807,
        0,
        0.98731058835983276,
        0.11833981424570084,
        0.10589379817247391,
        0,
        0.13752706348896027,
        -0.30377760529518127,
        -0.94276481866836548,
        0,
        -7.9957633018493652,
        19.305133819580078,
        130.73066711425781,
        1
      ],
      "name": "RootNode (model correction matrix)"
    },
    {
      "children": [
        3,
        4,
        5
      ],
      "name": "model.obj.cleaner.materialmerger.gles"
    },
    {
      "mesh": 0,
      "name": ""
    },
    {
      "mesh": 1,
      "name": ""
    },
    {
      "mesh": 2,
      "name": ""
    }
  ],
  "samplers": [
    {
      "magFilter": 9729,
      "minFilter": 9987,
      "wrapS": 10497,
      "wrapT": 10497
    }
  ],
  "scene": 0,
  "scenes": [
    {
      "name": "OSG_Scene",
      "nodes": [
        0
      ]
    }
  ],
  "textures": [
    {
      "sampler": 0,
      "source": 0
    }
  ]
}

